<?xml version="1.0" ?><svg contentScriptType="text/ecmascript" contentStyleType="text/css" enable-background="new 0 0 2048 2048" height="2048px" id="Layer_1" preserveAspectRatio="xMidYMid meet" version="1.1" viewBox="0.0 0 1536.0 2048" width="1536.0px" xml:space="preserve" xmlns="http://www.w3.org/2000/svg" xmlns:xlink="http://www.w3.org/1999/xlink" zoomAndPan="magnify"><path d="M237,1542h231V848H237V1542z M483,634c-0.667-34.667-12.667-63.333-36-86s-54.333-34-93-34s-70.167,11.333-94.5,34  S223,599.333,223,634c0,34,11.833,62.5,35.5,85.5S313,754,351,754h1c39.333,0,71-11.5,95-34.5S483,668,483,634z M1068,1542h231v-398  c0-102.667-24.333-180.333-73-233s-113-79-193-79c-90.667,0-160.333,39-209,117h2V848H595c2,44,2,275.333,0,694h231v-388  c0-25.333,2.333-44,7-56c10-23.333,25-43.167,45-59.5c20-16.333,44.667-24.5,74-24.5c77.333,0,116,52.333,116,157V1542z M1536,544  v960c0,79.333-28.167,147.167-84.5,203.5S1327.333,1792,1248,1792H288c-79.333,0-147.167-28.167-203.5-84.5S0,1583.333,0,1504V544  c0-79.333,28.167-147.167,84.5-203.5S208.667,256,288,256h960c79.333,0,147.167,28.167,203.5,84.5S1536,464.667,1536,544z"/></svg>