<?xml version="1.0" ?><!DOCTYPE svg  PUBLIC '-//W3C//DTD SVG 1.1//EN'  'http://www.w3.org/Graphics/SVG/1.1/DTD/svg11.dtd'><svg enable-background="new 0 0 24 24" height="24px" id="Layer_1" version="1.1" viewBox="0 0 24 24" width="24px" xml:space="preserve" xmlns="http://www.w3.org/2000/svg" xmlns:xlink="http://www.w3.org/1999/xlink"><g><g><path d="M19.6,23.5h-5.1c-0.2,0-0.3-0.1-0.4-0.3l-4.9-8.6c-0.1-0.2-0.1-0.3,0-0.5l7.5-13.4c0.1-0.2,0.3-0.3,0.4-0.3h5.1    c0.2,0,0.3,0.1,0.4,0.2c0.1,0.2,0.1,0.3,0,0.5l-7.4,13.1l4.7,8.4c0.1,0.2,0.1,0.3,0,0.5C19.9,23.4,19.8,23.5,19.6,23.5z     M14.8,22.5h3.9l-4.4-7.9c-0.1-0.2-0.1-0.3,0-0.5l7.1-12.6h-3.9l-7.3,12.9L14.8,22.5z"/></g><g><path d="M6.5,16.8H1.7c-0.2,0-0.3-0.1-0.4-0.3c-0.1-0.2-0.1-0.3,0-0.5l3.6-6L2.2,5.3c-0.1-0.2-0.1-0.3,0-0.5    c0.1-0.2,0.3-0.2,0.4-0.2h4.8c0.2,0,0.3,0.1,0.4,0.3l2.8,5c0.1,0.2,0.1,0.3,0,0.5L7,16.6C6.9,16.8,6.7,16.8,6.5,16.8z M2.6,15.8    h3.6l3.5-5.8L7.2,5.5H3.5l2.4,4.3C6,10,6,10.2,5.9,10.3L2.6,15.8z"/></g></g></svg>